<svg width="24" height="24" viewBox="0 0 24 24" fill="none" xmlns="http://www.w3.org/2000/svg">
<g clip-path="url(#clip0_204_205)">
<path d="M14.0499 14.1C12.6299 18.05 8.26994 23.45 3.51994 22.62C1.89994 22.3333 0.876605 21.3533 0.449939 19.68C-0.740061 14.99 5.41994 10.23 9.18994 8.84002C9.48994 8.72668 9.63994 8.50999 9.63994 8.18999C9.53327 -2.68334 9.48327 -20.7267 9.48994 -45.94C9.50327 -223.453 9.50661 -400.967 9.49994 -578.48C9.49994 -579.62 9.94994 -581.29 9.98994 -582.68C10.0033 -583.047 9.83661 -583.29 9.48994 -583.41C5.60994 -584.74 -0.450061 -589.35 0.389939 -594.07C0.889939 -596.83 3.71994 -597.85 6.25994 -596.93C10.1133 -595.53 12.7066 -592.8 14.0399 -588.74C14.1533 -588.413 14.3833 -588.25 14.7299 -588.25H542.79C543.19 -588.25 543.473 -588.43 543.64 -588.79C545.36 -592.47 547.62 -596.18 551.87 -597.07C557.14 -598.18 558.97 -593.59 556.09 -589.42C554.037 -586.46 551.417 -584.447 548.23 -583.38C547.763 -583.227 547.59 -582.91 547.71 -582.43L548.11 -580.86C548.203 -580.473 548.25 -580.083 548.25 -579.69C548.25 -384.963 548.25 -190.233 548.25 4.49999C548.25 5.66999 547.86 6.69999 547.73 7.93999C547.69 8.28666 547.833 8.52 548.16 8.64C551.96 10.01 557.37 14.05 557.58 18.45C557.7 21 555.26 23.02 552.7 22.74C548.45 22.28 545.02 17.86 543.65 14.09C543.51 13.6967 543.23 13.5 542.81 13.5H14.8999C14.4799 13.5 14.1966 13.7 14.0499 14.1ZM3.06994 -594.53C8.02994 -597.49 11.2899 -587.83 12.4599 -588.2C12.7599 -588.287 12.8499 -588.477 12.7299 -588.77C11.2499 -592.27 5.54994 -599.34 1.80994 -594.24C1.58994 -593.947 1.53327 -593.627 1.63994 -593.28C4.44994 -583.86 12.4099 -585.33 20.3099 -585.34C177.483 -585.493 334.657 -585.53 491.83 -585.45C508.13 -585.44 521.66 -585.71 544.15 -585.35C549.31 -585.27 552.99 -586.72 555.44 -591.06C556.88 -593.63 555.68 -596.35 552.53 -595.94C548.99 -595.48 546.37 -591.85 545.06 -588.82C544.947 -588.553 545.01 -588.333 545.25 -588.16L545.5 -587.97C545.78 -587.763 545.973 -587.823 546.08 -588.15C547.187 -591.39 549.26 -593.69 552.3 -595.05C552.62 -595.19 552.95 -595.223 553.29 -595.15C555.42 -594.69 555.77 -592.94 554.52 -591.27C552.287 -588.257 549.363 -586.75 545.75 -586.75C368.27 -586.743 190.79 -586.663 13.3099 -586.51C8.46327 -586.503 4.87327 -588.49 2.53994 -592.47C2.33949 -592.812 2.28272 -593.22 2.3819 -593.606C2.48107 -593.991 2.72823 -594.323 3.06994 -594.53ZM5.25994 -594.11C4.99711 -594.241 4.69653 -594.279 4.40886 -594.216C4.1212 -594.153 3.86405 -593.993 3.6808 -593.764C3.49754 -593.535 3.39938 -593.25 3.40286 -592.958C3.40635 -592.666 3.51127 -592.384 3.69994 -592.16C5.30661 -590.213 7.33994 -588.837 9.79994 -588.03C10.3466 -587.85 10.5133 -588.027 10.2999 -588.56C9.31327 -591.053 7.63327 -592.903 5.25994 -594.11ZM552.89 -594.3C550.57 -593.41 548.35 -590.97 547.46 -588.64C547.287 -588.193 547.43 -588.03 547.89 -588.15C549.92 -588.69 555.48 -591.43 553.76 -594.02C553.547 -594.347 553.257 -594.44 552.89 -594.3ZM12.5499 8.07C12.8799 4.93 11.9999 0.120019 12.5199 -2.21998C12.6666 -2.86665 12.7399 -3.21001 12.7399 -3.25001L12.7499 -582.45C12.7499 -582.963 12.5266 -583.097 12.0799 -582.85C11.4066 -582.47 11.0666 -581.75 11.0599 -580.69C10.9999 -385.55 11.4699 -190.39 10.9799 4.74999C10.9799 6.16999 11.2866 7.32997 11.8999 8.22997C12.2666 8.7633 12.4833 8.71 12.5499 8.07ZM545.88 8.14C547.81 6.55 546.51 -41.08 546.52 -47.25C546.673 -225.143 546.687 -403.04 546.56 -580.94C546.56 -581.853 546.273 -582.54 545.7 -583C545.658 -583.032 545.608 -583.053 545.556 -583.059C545.503 -583.065 545.451 -583.057 545.403 -583.035C545.356 -583.013 545.317 -582.978 545.29 -582.935C545.263 -582.891 545.249 -582.841 545.25 -582.79V7.84002C545.25 8.38668 545.46 8.48667 545.88 8.14ZM542.74 -582.48C542.74 -582.552 542.711 -582.62 542.661 -582.671C542.61 -582.722 542.542 -582.75 542.47 -582.75H15.2699C15.1983 -582.75 15.1297 -582.722 15.079 -582.671C15.0284 -582.62 14.9999 -582.552 14.9999 -582.48V7.97997C14.9999 8.05158 15.0284 8.12025 15.079 8.17089C15.1297 8.22152 15.1983 8.24999 15.2699 8.24999H542.47C542.542 8.24999 542.61 8.22152 542.661 8.17089C542.711 8.12025 542.74 8.05158 542.74 7.97997V-582.48ZM2.55994 17.88C6.10994 10.44 16.5699 12.07 23.4999 12.07C194.353 12.0633 365.207 12.12 536.06 12.24C543.15 12.24 550.67 10.48 555.16 17.54C555.32 17.8 555.36 18.08 555.28 18.38C553.55 24.77 547.15 16.39 546.13 13.61C545.97 13.1766 545.72 13.1166 545.38 13.43C544.09 14.64 550.99 23.96 554.82 20.78C556.62 19.28 556.2 17.43 554.95 15.67C550.8 9.85997 546.62 10.75 540.32 10.75C366.527 10.75 192.733 10.7466 18.9399 10.74C13.1266 10.74 10.2166 10.7433 10.2099 10.75C6.78994 11.34 -2.37006 17.64 3.74994 21.38C3.98055 21.5199 4.24009 21.6052 4.50873 21.6295C4.77736 21.6538 5.04799 21.6163 5.29994 21.52C8.90661 20.12 11.4033 17.5933 12.7899 13.94C12.8204 13.8579 12.8283 13.769 12.8128 13.6828C12.7973 13.5966 12.7589 13.5161 12.7018 13.4497C12.6446 13.3833 12.5706 13.3335 12.4877 13.3054C12.4047 13.2773 12.3157 13.272 12.2299 13.29C11.5999 13.42 5.17994 25.66 2.51994 18.8C2.39994 18.4866 2.41327 18.18 2.55994 17.88ZM9.79994 13.51C7.47994 13.52 4.55994 16.36 3.51994 18.11C3.40481 18.3005 3.35432 18.5225 3.37586 18.7436C3.39739 18.9648 3.48982 19.1733 3.63961 19.3387C3.7894 19.5042 3.98868 19.6179 4.20827 19.6631C4.42786 19.7083 4.65623 19.6827 4.85994 19.59C7.30661 18.45 9.10327 16.6567 10.2499 14.21C10.4699 13.7367 10.3199 13.5033 9.79994 13.51ZM547.52 14.01C548.607 16.61 550.437 18.4766 553.01 19.61C553.517 19.8366 553.827 19.6767 553.94 19.13C554.52 16.22 550 14.08 548.1 13.39C547.44 13.1567 547.247 13.3633 547.52 14.01Z" fill="#FDFDFC"/>
</g>
<defs>
<clipPath id="clip0_204_205">
<rect width="24" height="24" fill="white"/>
</clipPath>
</defs>
</svg>
