<svg width="24" height="24" viewBox="0 0 24 24" fill="none" xmlns="http://www.w3.org/2000/svg">
<g clip-path="url(#clip0_204_205)">
<path d="M14.0499 612.1C12.6299 616.05 8.26994 621.45 3.51994 620.62C1.89994 620.333 0.876605 619.353 0.449939 617.68C-0.740061 612.99 5.41994 608.23 9.18994 606.84C9.48994 606.727 9.63994 606.51 9.63994 606.19C9.53327 595.317 9.48327 577.273 9.48994 552.06C9.50327 374.547 9.50661 197.033 9.49994 19.52C9.49994 18.38 9.94994 16.71 9.98994 15.32C10.0033 14.9534 9.83661 14.71 9.48994 14.59C5.60994 13.26 -0.450061 8.65004 0.389939 3.93004C0.889939 1.17004 3.71994 0.150045 6.25994 1.07005C10.1133 2.47005 12.7066 5.20004 14.0399 9.26004C14.1533 9.58671 14.3833 9.75004 14.7299 9.75004H542.79C543.19 9.75004 543.473 9.57004 543.64 9.21004C545.36 5.53004 547.62 1.82005 551.87 0.930045C557.14 -0.179955 558.97 4.41004 556.09 8.58004C554.037 11.54 551.417 13.5534 548.23 14.62C547.763 14.7734 547.59 15.09 547.71 15.57L548.11 17.14C548.203 17.5267 548.25 17.9167 548.25 18.31C548.25 213.037 548.25 407.767 548.25 602.5C548.25 603.67 547.86 604.7 547.73 605.94C547.69 606.287 547.833 606.52 548.16 606.64C551.96 608.01 557.37 612.05 557.58 616.45C557.7 619 555.26 621.02 552.7 620.74C548.45 620.28 545.02 615.86 543.65 612.09C543.51 611.697 543.23 611.5 542.81 611.5H14.8999C14.4799 611.5 14.1966 611.7 14.0499 612.1ZM3.06994 3.47004C8.02994 0.510045 11.2899 10.17 12.4599 9.80004C12.7599 9.71338 12.8499 9.52338 12.7299 9.23004C11.2499 5.73004 5.54994 -1.33995 1.80994 3.76005C1.58994 4.05338 1.53327 4.37338 1.63994 4.72004C4.44994 14.14 12.4099 12.67 20.3099 12.66C177.483 12.5067 334.657 12.47 491.83 12.55C508.13 12.56 521.66 12.29 544.15 12.65C549.31 12.73 552.99 11.28 555.44 6.94004C556.88 4.37004 555.68 1.65005 552.53 2.06005C548.99 2.52004 546.37 6.15004 545.06 9.18004C544.947 9.44671 545.01 9.66671 545.25 9.84004L545.5 10.03C545.78 10.2367 545.973 10.1767 546.08 9.85004C547.187 6.61004 549.26 4.31005 552.3 2.95005C552.62 2.81005 552.95 2.77671 553.29 2.85004C555.42 3.31004 555.77 5.06005 554.52 6.73004C552.287 9.74338 549.363 11.25 545.75 11.25C368.27 11.2567 190.79 11.3367 13.3099 11.49C8.46327 11.4967 4.87327 9.51004 2.53994 5.53005C2.33949 5.18768 2.28272 4.77966 2.3819 4.39418C2.48107 4.00869 2.72823 3.67673 3.06994 3.47004ZM5.25994 3.89004C4.99711 3.75868 4.69653 3.72136 4.40886 3.78437C4.1212 3.84739 3.86405 4.00687 3.6808 4.23595C3.49754 4.46502 3.39938 4.74966 3.40286 5.04187C3.40635 5.33408 3.51127 5.61599 3.69994 5.84004C5.30661 7.78671 7.33994 9.16338 9.79994 9.97004C10.3466 10.15 10.5133 9.97338 10.2999 9.44004C9.31327 6.94671 7.63327 5.09671 5.25994 3.89004ZM552.89 3.70004C550.57 4.59004 548.35 7.03004 547.46 9.36004C547.287 9.80671 547.43 9.97004 547.89 9.85004C549.92 9.31004 555.48 6.57004 553.76 3.98004C553.547 3.65338 553.257 3.56004 552.89 3.70004ZM12.5499 606.07C12.8799 602.93 11.9999 598.12 12.5199 595.78C12.6666 595.133 12.7399 594.79 12.7399 594.75L12.7499 15.55C12.7499 15.0367 12.5266 14.9034 12.0799 15.15C11.4066 15.53 11.0666 16.25 11.0599 17.31C10.9999 212.45 11.4699 407.61 10.9799 602.75C10.9799 604.17 11.2866 605.33 11.8999 606.23C12.2666 606.763 12.4833 606.71 12.5499 606.07ZM545.88 606.14C547.81 604.55 546.51 556.92 546.52 550.75C546.673 372.857 546.687 194.96 546.56 17.06C546.56 16.1467 546.273 15.46 545.7 15C545.658 14.9677 545.608 14.9472 545.556 14.941C545.503 14.9349 545.451 14.9433 545.403 14.9653C545.356 14.9873 545.317 15.0219 545.29 15.0652C545.263 15.1086 545.249 15.1588 545.25 15.21V605.84C545.25 606.387 545.46 606.487 545.88 606.14ZM542.74 15.52C542.74 15.4484 542.711 15.3798 542.661 15.3291C542.61 15.2785 542.542 15.25 542.47 15.25H15.2699C15.1983 15.25 15.1297 15.2785 15.079 15.3291C15.0284 15.3798 14.9999 15.4484 14.9999 15.52V605.98C14.9999 606.052 15.0284 606.12 15.079 606.171C15.1297 606.222 15.1983 606.25 15.2699 606.25H542.47C542.542 606.25 542.61 606.222 542.661 606.171C542.711 606.12 542.74 606.052 542.74 605.98V15.52ZM2.55994 615.88C6.10994 608.44 16.5699 610.07 23.4999 610.07C194.353 610.063 365.207 610.12 536.06 610.24C543.15 610.24 550.67 608.48 555.16 615.54C555.32 615.8 555.36 616.08 555.28 616.38C553.55 622.77 547.15 614.39 546.13 611.61C545.97 611.177 545.72 611.117 545.38 611.43C544.09 612.64 550.99 621.96 554.82 618.78C556.62 617.28 556.2 615.43 554.95 613.67C550.8 607.86 546.62 608.75 540.32 608.75C366.527 608.75 192.733 608.747 18.9399 608.74C13.1266 608.74 10.2166 608.743 10.2099 608.75C6.78994 609.34 -2.37006 615.64 3.74994 619.38C3.98055 619.52 4.24009 619.605 4.50873 619.63C4.77736 619.654 5.04799 619.616 5.29994 619.52C8.90661 618.12 11.4033 615.593 12.7899 611.94C12.8204 611.858 12.8283 611.769 12.8128 611.683C12.7973 611.597 12.7589 611.516 12.7018 611.45C12.6446 611.383 12.5706 611.334 12.4877 611.305C12.4047 611.277 12.3157 611.272 12.2299 611.29C11.5999 611.42 5.17994 623.66 2.51994 616.8C2.39994 616.487 2.41327 616.18 2.55994 615.88ZM9.79994 611.51C7.47994 611.52 4.55994 614.36 3.51994 616.11C3.40481 616.3 3.35432 616.523 3.37586 616.744C3.39739 616.965 3.48982 617.173 3.63961 617.339C3.7894 617.504 3.98868 617.618 4.20827 617.663C4.42786 617.708 4.65623 617.683 4.85994 617.59C7.30661 616.45 9.10327 614.657 10.2499 612.21C10.4699 611.737 10.3199 611.503 9.79994 611.51ZM547.52 612.01C548.607 614.61 550.437 616.477 553.01 617.61C553.517 617.837 553.827 617.677 553.94 617.13C554.52 614.22 550 612.08 548.1 611.39C547.44 611.157 547.247 611.363 547.52 612.01Z" fill="#FDFDFC"/>
</g>
<defs>
<clipPath id="clip0_204_205">
<rect width="24" height="24" fill="white"/>
</clipPath>
</defs>
</svg>
