<svg width="24" height="24" viewBox="0 0 24 24" fill="none" xmlns="http://www.w3.org/2000/svg">
<g clip-path="url(#clip0_204_205)">
<path d="M-520.95 612.1C-522.37 616.05 -526.73 621.45 -531.48 620.62C-533.1 620.333 -534.123 619.353 -534.55 617.68C-535.74 612.99 -529.58 608.23 -525.81 606.84C-525.51 606.727 -525.36 606.51 -525.36 606.19C-525.467 595.317 -525.517 577.273 -525.51 552.06C-525.497 374.547 -525.493 197.033 -525.5 19.52C-525.5 18.38 -525.05 16.71 -525.01 15.32C-524.997 14.9534 -525.163 14.71 -525.51 14.59C-529.39 13.26 -535.45 8.65004 -534.61 3.93004C-534.11 1.17005 -531.28 0.150045 -528.74 1.07005C-524.887 2.47004 -522.293 5.20004 -520.96 9.26004C-520.847 9.58671 -520.617 9.75004 -520.27 9.75004H7.78992C8.18992 9.75004 8.47329 9.57004 8.63995 9.21004C10.36 5.53004 12.6199 1.82005 16.8699 0.930045C22.1399 -0.179955 23.97 4.41004 21.09 8.58004C19.0366 11.54 16.4166 13.5534 13.2299 14.62C12.7633 14.7734 12.59 15.09 12.71 15.57L13.1099 17.14C13.2033 17.5267 13.2499 17.9167 13.2499 18.31C13.2499 213.037 13.2499 407.767 13.2499 602.5C13.2499 603.67 12.8599 604.7 12.7299 605.94C12.6899 606.287 12.8332 606.52 13.1599 606.64C16.9599 608.01 22.37 612.05 22.58 616.45C22.7 619 20.26 621.02 17.7 620.74C13.45 620.28 10.02 615.86 8.64996 612.09C8.50996 611.697 8.22994 611.5 7.80994 611.5H-520.1C-520.52 611.5 -520.803 611.7 -520.95 612.1ZM-531.93 3.47004C-526.97 0.510045 -523.71 10.17 -522.54 9.80004C-522.24 9.71338 -522.15 9.52338 -522.27 9.23004C-523.75 5.73004 -529.45 -1.33995 -533.19 3.76005C-533.41 4.05338 -533.467 4.37338 -533.36 4.72004C-530.55 14.14 -522.59 12.67 -514.69 12.66C-357.517 12.5067 -200.343 12.47 -43.1701 12.55C-26.8701 12.56 -13.34 12.29 9.14996 12.65C14.31 12.73 17.9899 11.28 20.4399 6.94004C21.8799 4.37004 20.68 1.65005 17.53 2.06004C13.99 2.52004 11.3699 6.15004 10.0599 9.18004C9.9466 9.44671 10.0099 9.66671 10.2499 9.84004L10.4999 10.03C10.7799 10.2367 10.9733 10.1767 11.08 9.85004C12.1866 6.61004 14.2599 4.31004 17.2999 2.95005C17.6199 2.81005 17.9499 2.77671 18.2899 2.85004C20.4199 3.31004 20.77 5.06004 19.52 6.73004C17.2866 9.74338 14.3633 11.25 10.7499 11.25C-166.73 11.2567 -344.21 11.3367 -521.69 11.49C-526.537 11.4967 -530.127 9.51004 -532.46 5.53004C-532.661 5.18768 -532.717 4.77966 -532.618 4.39418C-532.519 4.00869 -532.272 3.67673 -531.93 3.47004ZM-529.74 3.89004C-530.003 3.75868 -530.303 3.72136 -530.591 3.78437C-530.879 3.84739 -531.136 4.00687 -531.319 4.23595C-531.502 4.46502 -531.601 4.74966 -531.597 5.04187C-531.594 5.33408 -531.489 5.61598 -531.3 5.84004C-529.693 7.78671 -527.66 9.16338 -525.2 9.97004C-524.653 10.15 -524.487 9.97338 -524.7 9.44004C-525.687 6.94671 -527.367 5.09671 -529.74 3.89004ZM17.89 3.70004C15.57 4.59004 13.35 7.03004 12.46 9.36004C12.2866 9.80671 12.43 9.97004 12.89 9.85004C14.92 9.31004 20.4799 6.57004 18.7599 3.98004C18.5466 3.65338 18.2566 3.56004 17.89 3.70004ZM-522.45 606.07C-522.12 602.93 -523 598.12 -522.48 595.78C-522.333 595.133 -522.26 594.79 -522.26 594.75L-522.25 15.55C-522.25 15.0367 -522.473 14.9034 -522.92 15.15C-523.593 15.53 -523.933 16.25 -523.94 17.31C-524 212.45 -523.53 407.61 -524.02 602.75C-524.02 604.17 -523.713 605.33 -523.1 606.23C-522.733 606.763 -522.517 606.71 -522.45 606.07ZM10.8799 606.14C12.8099 604.55 11.51 556.92 11.52 550.75C11.6733 372.857 11.6866 194.96 11.5599 17.06C11.5599 16.1467 11.2733 15.46 10.7 15C10.6583 14.9677 10.6083 14.9472 10.5558 14.941C10.5034 14.9349 10.4505 14.9433 10.4034 14.9653C10.3563 14.9873 10.3169 15.0219 10.2897 15.0652C10.2626 15.1086 10.2488 15.1588 10.2499 15.21V605.84C10.2499 606.387 10.4599 606.487 10.8799 606.14ZM7.73993 15.52C7.73993 15.4484 7.71146 15.3798 7.66083 15.3291C7.61019 15.2785 7.54152 15.25 7.46991 15.25H-519.73C-519.802 15.25 -519.87 15.2785 -519.921 15.3291C-519.972 15.3798 -520 15.4484 -520 15.52V605.98C-520 606.052 -519.972 606.12 -519.921 606.171C-519.87 606.222 -519.802 606.25 -519.73 606.25H7.46991C7.54152 606.25 7.61019 606.222 7.66083 606.171C7.71146 606.12 7.73993 606.052 7.73993 605.98V15.52ZM-532.44 615.88C-528.89 608.44 -518.43 610.07 -511.5 610.07C-340.647 610.063 -169.793 610.12 1.05994 610.24C8.14994 610.24 15.6699 608.48 20.1599 615.54C20.3199 615.8 20.36 616.08 20.28 616.38C18.55 622.77 12.1499 614.39 11.1299 611.61C10.9699 611.177 10.7199 611.117 10.3799 611.43C9.08994 612.64 15.9899 621.96 19.8199 618.78C21.6199 617.28 21.2 615.43 19.95 613.67C15.8 607.86 11.6199 608.75 5.31995 608.75C-168.473 608.75 -342.267 608.747 -516.06 608.74C-521.873 608.74 -524.783 608.743 -524.79 608.75C-528.21 609.34 -537.37 615.64 -531.25 619.38C-531.019 619.52 -530.76 619.605 -530.491 619.63C-530.223 619.654 -529.952 619.616 -529.7 619.52C-526.093 618.12 -523.597 615.593 -522.21 611.94C-522.18 611.858 -522.172 611.769 -522.187 611.683C-522.203 611.597 -522.241 611.516 -522.298 611.45C-522.355 611.383 -522.429 611.334 -522.512 611.305C-522.595 611.277 -522.684 611.272 -522.77 611.29C-523.4 611.42 -529.82 623.66 -532.48 616.8C-532.6 616.487 -532.587 616.18 -532.44 615.88ZM-525.2 611.51C-527.52 611.52 -530.44 614.36 -531.48 616.11C-531.595 616.3 -531.646 616.523 -531.624 616.744C-531.603 616.965 -531.51 617.173 -531.36 617.339C-531.211 617.504 -531.011 617.618 -530.792 617.663C-530.572 617.708 -530.344 617.683 -530.14 617.59C-527.693 616.45 -525.897 614.657 -524.75 612.21C-524.53 611.737 -524.68 611.503 -525.2 611.51ZM12.52 612.01C13.6066 614.61 15.4366 616.477 18.0099 617.61C18.5166 617.837 18.8266 617.677 18.9399 617.13C19.5199 614.22 14.9999 612.08 13.0999 611.39C12.4399 611.157 12.2466 611.363 12.52 612.01Z" fill="#FDFDFC"/>
</g>
<defs>
<clipPath id="clip0_204_205">
<rect width="24" height="24" fill="white"/>
</clipPath>
</defs>
</svg>
