<svg width="24" height="24" viewBox="0 0 24 24" fill="none" xmlns="http://www.w3.org/2000/svg">
<g clip-path="url(#clip0_204_205)">
<path d="M-520.95 14.1C-522.37 18.05 -526.73 23.45 -531.48 22.62C-533.1 22.3333 -534.123 21.3533 -534.55 19.68C-535.74 14.99 -529.58 10.23 -525.81 8.84002C-525.51 8.72668 -525.36 8.50999 -525.36 8.18999C-525.467 -2.68334 -525.517 -20.7267 -525.51 -45.94C-525.497 -223.453 -525.493 -400.967 -525.5 -578.48C-525.5 -579.62 -525.05 -581.29 -525.01 -582.68C-524.997 -583.047 -525.163 -583.29 -525.51 -583.41C-529.39 -584.74 -535.45 -589.35 -534.61 -594.07C-534.11 -596.83 -531.28 -597.85 -528.74 -596.93C-524.887 -595.53 -522.293 -592.8 -520.96 -588.74C-520.847 -588.413 -520.617 -588.25 -520.27 -588.25H7.78992C8.18992 -588.25 8.47329 -588.43 8.63995 -588.79C10.36 -592.47 12.6199 -596.18 16.8699 -597.07C22.1399 -598.18 23.97 -593.59 21.09 -589.42C19.0366 -586.46 16.4166 -584.447 13.2299 -583.38C12.7633 -583.227 12.59 -582.91 12.71 -582.43L13.1099 -580.86C13.2033 -580.473 13.2499 -580.083 13.2499 -579.69C13.2499 -384.963 13.2499 -190.233 13.2499 4.49999C13.2499 5.66999 12.8599 6.69999 12.7299 7.93999C12.6899 8.28666 12.8332 8.52 13.1599 8.64C16.9599 10.01 22.37 14.05 22.58 18.45C22.7 21 20.26 23.02 17.7 22.74C13.45 22.28 10.02 17.86 8.64996 14.09C8.50996 13.6967 8.22994 13.5 7.80994 13.5H-520.1C-520.52 13.5 -520.803 13.7 -520.95 14.1ZM-531.93 -594.53C-526.97 -597.49 -523.71 -587.83 -522.54 -588.2C-522.24 -588.287 -522.15 -588.477 -522.27 -588.77C-523.75 -592.27 -529.45 -599.34 -533.19 -594.24C-533.41 -593.947 -533.467 -593.627 -533.36 -593.28C-530.55 -583.86 -522.59 -585.33 -514.69 -585.34C-357.517 -585.493 -200.343 -585.53 -43.1701 -585.45C-26.8701 -585.44 -13.34 -585.71 9.14996 -585.35C14.31 -585.27 17.9899 -586.72 20.4399 -591.06C21.8799 -593.63 20.68 -596.35 17.53 -595.94C13.99 -595.48 11.3699 -591.85 10.0599 -588.82C9.9466 -588.553 10.0099 -588.333 10.2499 -588.16L10.4999 -587.97C10.7799 -587.763 10.9733 -587.823 11.08 -588.15C12.1866 -591.39 14.2599 -593.69 17.2999 -595.05C17.6199 -595.19 17.9499 -595.223 18.2899 -595.15C20.4199 -594.69 20.77 -592.94 19.52 -591.27C17.2866 -588.257 14.3633 -586.75 10.7499 -586.75C-166.73 -586.743 -344.21 -586.663 -521.69 -586.51C-526.537 -586.503 -530.127 -588.49 -532.46 -592.47C-532.661 -592.812 -532.717 -593.22 -532.618 -593.606C-532.519 -593.991 -532.272 -594.323 -531.93 -594.53ZM-529.74 -594.11C-530.003 -594.241 -530.303 -594.279 -530.591 -594.216C-530.879 -594.153 -531.136 -593.993 -531.319 -593.764C-531.502 -593.535 -531.601 -593.25 -531.597 -592.958C-531.594 -592.666 -531.489 -592.384 -531.3 -592.16C-529.693 -590.213 -527.66 -588.837 -525.2 -588.03C-524.653 -587.85 -524.487 -588.027 -524.7 -588.56C-525.687 -591.053 -527.367 -592.903 -529.74 -594.11ZM17.89 -594.3C15.57 -593.41 13.35 -590.97 12.46 -588.64C12.2866 -588.193 12.43 -588.03 12.89 -588.15C14.92 -588.69 20.4799 -591.43 18.7599 -594.02C18.5466 -594.347 18.2566 -594.44 17.89 -594.3ZM-522.45 8.07C-522.12 4.93 -523 0.120019 -522.48 -2.21998C-522.333 -2.86665 -522.26 -3.21001 -522.26 -3.25001L-522.25 -582.45C-522.25 -582.963 -522.473 -583.097 -522.92 -582.85C-523.593 -582.47 -523.933 -581.75 -523.94 -580.69C-524 -385.55 -523.53 -190.39 -524.02 4.74999C-524.02 6.16999 -523.713 7.32997 -523.1 8.22997C-522.733 8.7633 -522.517 8.71 -522.45 8.07ZM10.8799 8.14C12.8099 6.55 11.51 -41.08 11.52 -47.25C11.6733 -225.143 11.6866 -403.04 11.5599 -580.94C11.5599 -581.853 11.2733 -582.54 10.7 -583C10.6583 -583.032 10.6083 -583.053 10.5558 -583.059C10.5034 -583.065 10.4505 -583.057 10.4034 -583.035C10.3563 -583.013 10.3169 -582.978 10.2897 -582.935C10.2626 -582.891 10.2488 -582.841 10.2499 -582.79V7.84002C10.2499 8.38668 10.4599 8.48667 10.8799 8.14ZM7.73993 -582.48C7.73993 -582.552 7.71146 -582.62 7.66083 -582.671C7.61019 -582.722 7.54152 -582.75 7.46991 -582.75H-519.73C-519.802 -582.75 -519.87 -582.722 -519.921 -582.671C-519.972 -582.62 -520 -582.552 -520 -582.48V7.97997C-520 8.05158 -519.972 8.12025 -519.921 8.17089C-519.87 8.22152 -519.802 8.24999 -519.73 8.24999H7.46991C7.54152 8.24999 7.61019 8.22152 7.66083 8.17089C7.71146 8.12025 7.73993 8.05158 7.73993 7.97997V-582.48ZM-532.44 17.88C-528.89 10.44 -518.43 12.07 -511.5 12.07C-340.647 12.0633 -169.793 12.12 1.05994 12.24C8.14994 12.24 15.6699 10.48 20.1599 17.54C20.3199 17.8 20.36 18.08 20.28 18.38C18.55 24.77 12.1499 16.39 11.1299 13.61C10.9699 13.1766 10.7199 13.1166 10.3799 13.43C9.08994 14.64 15.9899 23.96 19.8199 20.78C21.6199 19.28 21.2 17.43 19.95 15.67C15.8 9.85997 11.6199 10.75 5.31995 10.75C-168.473 10.75 -342.267 10.7466 -516.06 10.74C-521.873 10.74 -524.783 10.7433 -524.79 10.75C-528.21 11.34 -537.37 17.64 -531.25 21.38C-531.019 21.5199 -530.76 21.6052 -530.491 21.6295C-530.223 21.6538 -529.952 21.6163 -529.7 21.52C-526.093 20.12 -523.597 17.5933 -522.21 13.94C-522.18 13.8579 -522.172 13.769 -522.187 13.6828C-522.203 13.5966 -522.241 13.5161 -522.298 13.4497C-522.355 13.3833 -522.429 13.3335 -522.512 13.3054C-522.595 13.2773 -522.684 13.272 -522.77 13.29C-523.4 13.42 -529.82 25.66 -532.48 18.8C-532.6 18.4866 -532.587 18.18 -532.44 17.88ZM-525.2 13.51C-527.52 13.52 -530.44 16.36 -531.48 18.11C-531.595 18.3005 -531.646 18.5225 -531.624 18.7436C-531.603 18.9648 -531.51 19.1733 -531.36 19.3387C-531.211 19.5042 -531.011 19.6179 -530.792 19.6631C-530.572 19.7083 -530.344 19.6827 -530.14 19.59C-527.693 18.45 -525.897 16.6567 -524.75 14.21C-524.53 13.7367 -524.68 13.5033 -525.2 13.51ZM12.52 14.01C13.6066 16.61 15.4366 18.4766 18.0099 19.61C18.5166 19.8366 18.8266 19.6767 18.9399 19.13C19.5199 16.22 14.9999 14.08 13.0999 13.39C12.4399 13.1567 12.2466 13.3633 12.52 14.01Z" fill="#FDFDFC"/>
</g>
<defs>
<clipPath id="clip0_204_205">
<rect width="24" height="24" fill="white"/>
</clipPath>
</defs>
</svg>
