<svg width="40" height="19" viewBox="0 0 40 19" fill="none" xmlns="http://www.w3.org/2000/svg">
<path d="M19.6694 11.25C22.9694 16.4 17.2394 21.47 14.7794 17.43C14.5919 17.1248 14.5091 16.766 14.5433 16.4074C14.5776 16.0487 14.727 15.7094 14.9694 15.44C15.8627 14.46 16.896 14.2667 18.0694 14.86C18.396 15.0267 18.6627 14.9567 18.8694 14.65C20.3594 12.41 14.9094 10.79 13.4094 10.86C11.196 10.96 8.97268 10.9167 6.73935 10.73C6.34602 10.6967 6.02603 10.8333 5.77936 11.14C4.79936 12.3533 3.53271 12.81 1.97937 12.51C1.67937 12.45 1.42269 12.31 1.20935 12.09C-1.78065 8.99 2.73936 4.64 5.52936 8.48C5.72936 8.75333 5.99936 8.89 6.33936 8.89C10.1394 8.92 17.6394 10.04 19.0194 5.4C19.206 4.79333 18.9927 4.58 18.3794 4.76L17.0594 5.15C16.806 5.22333 16.5527 5.22333 16.2993 5.15C15.346 4.87 14.816 4.15 14.7094 2.99C14.6806 2.67756 14.7239 2.36267 14.8359 2.06961C14.948 1.77654 15.1259 1.51311 15.3558 1.2996C15.5857 1.0861 15.8616 0.928228 16.1621 0.838142C16.4627 0.748056 16.7799 0.728164 17.0894 0.779997C19.9994 1.27 22.1594 5 19.9794 7.5C19.7594 7.74666 19.7093 8.02666 19.8293 8.34C20.6993 10.69 26.2094 6.7 27.1994 5.63C27.4394 5.37 27.7194 5.32333 28.0394 5.49C31.386 7.31666 34.9394 8.57 38.6994 9.25C38.8372 9.27549 38.9618 9.34846 39.0515 9.45623C39.1412 9.56401 39.1903 9.69979 39.1903 9.84C39.1903 9.9802 39.1412 10.116 39.0515 10.2238C38.9618 10.3315 38.8372 10.4045 38.6994 10.43C35.0994 11.1033 31.806 12.2467 28.8194 13.86C27.1794 14.75 25.9894 12.71 24.9294 12.09C23.4294 11.2167 21.7727 10.76 19.9594 10.72C19.897 10.7185 19.8354 10.7342 19.7814 10.7654C19.7273 10.7965 19.6829 10.842 19.653 10.8967C19.623 10.9514 19.6087 11.0133 19.6116 11.0756C19.6145 11.138 19.6345 11.1983 19.6694 11.25Z" fill="white"/>
</svg>
