<svg width="24" height="24" viewBox="0 0 24 24" fill="none" xmlns="http://www.w3.org/2000/svg">
<g clip-path="url(#clip0_204_5)">
<path d="M956 -2134V6.5C955.5 8 954.257 7.85258 952.851 8.12598C944.673 9.70634 940.3 14.5981 940 23C939.986 23.3805 939.5 23.5 939.5 23.5C939.5 23.5 939 24 938.5 24H19C18.7312 24.001 17.5 24 17.5 24C17 24 17 23.5 17 23.5C16.1536 13.3843 10.8438 8.41611 0.699818 7.55591C0.233273 7.5159 5.08435e-07 7.26267 5.08435e-07 6.7959V-2134.01C-0.000191295 -2134.15 0.053891 -2134.29 0.150859 -2134.39C0.247827 -2134.49 0.380115 -2134.55 0.519865 -2134.56C9.68414 -2135.02 15.1494 -2139.67 16.9156 -2148.51C17.1355 -2149.56 18.5001 -2152 19 -2152C325.713 -2152 631.787 -2152 938.5 -2152C938.873 -2152 939.353 -2151.35 939.5 -2151C940.18 -2149.43 940.154 -2147.57 940.474 -2146.42C942.334 -2139.88 946.442 -2136.26 953 -2135C954.203 -2134.77 956 -2134.5 956 -2134ZM938.055 -2144.65C937.595 -2145.87 937.735 -2147.66 937.135 -2148.74C937 -2149.5 936.907 -2150 936.5 -2150H21C20.5934 -2150 19.8681 -2149 19.7948 -2148.6C18.0553 -2139.12 12.4701 -2133.55 3.03921 -2131.89C2.6793 -2131.83 2 -2131.87 2 -2131.5V4C2 4.34008 2.66597 4.79545 2.99922 4.85547C11.0271 6.22578 19.195 12.5371 19.5649 21.3391C19.5915 21.9459 19.8935 22 20.5 22H936.5H937C937.079 21.9341 937.079 21.9893 937.095 21.8892C938.668 12.4337 944.27 6.76234 953.901 4.87524C954 4.5 954 4 954 4V-2131.5C954 -2131.78 953.78 -2131.95 953.5 -2132C945.702 -2133.29 940.774 -2137.48 938.055 -2144.65Z" fill="#FEFEFE"/>
<path d="M4.47 -2130.56C13.18 -2133.01 18.69 -2138.11 20.81 -2146.98C20.89 -2147.33 21.64 -2148 22 -2148H934.18C934.473 -2148 935.203 -2147.36 935.27 -2147.08C937.403 -2138.32 942.847 -2132.85 951.6 -2130.68C951.98 -2130.58 952 -2130.35 952 -2130V2C952 2.34667 952.01 2.62329 951.67 2.70996C942.897 4.84329 937.443 10.2934 935.31 19.0601C935.237 19.3534 934.8 20 934.5 20H21.5C21.1333 20 20.8667 19.32 20.78 18.96C18.54 9.39996 13.07 5.52004 4.53 2.54004C4.17667 2.42004 4 2.17004 4 1.79004V-2129.94C4 -2130.27 4.15667 -2130.47 4.47 -2130.56ZM949.8 -2129.64C942.16 -2131.43 936.27 -2137.78 934.18 -2145.33C934.099 -2145.63 934 -2146 934 -2146C934 -2146 933.31 -2147.02 933 -2147C931 -2147 929.247 -2147 927.5 -2147C625.94 -2146.89 324.593 -2146.9 23 -2147C22.8326 -2147 22.5 -2146.5 22.5 -2146.5C22.5 -2146.5 22.0757 -2145.68 22.03 -2145.52C19.5967 -2137.13 14.19 -2131.76 5.81 -2129.4C5.7203 -2129.37 5.05594 -2129.07 5 -2129V0.5C5 0.88 5.68333 1.39333 6.05 1.5C14.1833 3.89333 19.4867 9.12662 21.96 17.2C22.14 17.7933 22.3733 19 23 19C324.207 18.88 625.093 18.9133 925.5 19C927.34 19 930.88 19.24 933.5 19C933.833 18.9667 933.967 17.9899 934.06 17.6699C936.453 9.37659 941.777 3.97998 950.03 1.47998C950.51 1.33331 951 1.00667 951 0.5V-2128.5C951 -2128.78 950.656 -2128.99 950.484 -2129.21C950.311 -2129.42 950.07 -2129.58 949.8 -2129.64Z" fill="#FEFEFE"/>
</g>
<defs>
<clipPath id="clip0_204_5">
<rect width="24" height="24" fill="white"/>
</clipPath>
</defs>
</svg>
