<svg width="24" height="24" viewBox="0 0 24 24" fill="none" xmlns="http://www.w3.org/2000/svg">
<g clip-path="url(#clip0_204_5)">
<path d="M23 -2134V6.5C22.5 8 21.2573 7.85258 19.851 8.12598C11.6731 9.70634 7.29992 14.5981 7 23C6.98642 23.3805 6.5 23.5 6.5 23.5C6.5 23.5 6 24 5.5 24H-914C-914.269 24.001 -915.5 24 -915.5 24C-916 24 -916 23.5 -916 23.5C-916.846 13.3843 -922.156 8.41611 -932.3 7.55591C-932.767 7.5159 -933 7.26267 -933 6.7959V-2134.01C-933 -2134.15 -932.946 -2134.29 -932.849 -2134.39C-932.752 -2134.49 -932.62 -2134.55 -932.48 -2134.56C-923.316 -2135.02 -917.851 -2139.67 -916.084 -2148.51C-915.864 -2149.56 -914.5 -2152 -914 -2152C-607.287 -2152 -301.213 -2152 5.5 -2152C5.87324 -2152 6.35337 -2151.35 6.5 -2151C7.17982 -2149.43 7.15433 -2147.57 7.47424 -2146.42C9.33376 -2139.88 13.4417 -2136.26 20 -2135C21.2031 -2134.77 23 -2134.5 23 -2134ZM5.05493 -2144.65C4.59505 -2145.87 4.73504 -2147.66 4.13519 -2148.74C4 -2149.5 3.90656 -2150 3.5 -2150H-912C-912.407 -2150 -913.132 -2149 -913.205 -2148.6C-914.945 -2139.12 -920.53 -2133.55 -929.961 -2131.89C-930.321 -2131.83 -931 -2131.87 -931 -2131.5V4C-931 4.34008 -930.334 4.79545 -930.001 4.85547C-921.973 6.22578 -913.805 12.5371 -913.435 21.3391C-913.408 21.9459 -913.107 22 -912.5 22H3.5H4C4.07867 21.9341 4.0787 21.9893 4.09521 21.8892C5.66814 12.4337 11.27 6.76234 20.9008 4.87524C21 4.5 21 4 21 4V-2131.5C21 -2131.78 20.7799 -2131.95 20.5 -2132C12.702 -2133.29 7.77422 -2137.48 5.05493 -2144.65Z" fill="#FEFEFE"/>
<path d="M-928.53 -2130.56C-919.82 -2133.01 -914.31 -2138.11 -912.19 -2146.98C-912.11 -2147.33 -911.36 -2148 -911 -2148H1.17999C1.47333 -2148 2.20335 -2147.36 2.27002 -2147.08C4.40335 -2138.32 9.84664 -2132.85 18.6 -2130.68C18.98 -2130.58 19 -2130.35 19 -2130V2C19 2.34667 19.01 2.62329 18.67 2.70996C9.89665 4.84329 4.44333 10.2934 2.31 19.0601C2.23666 19.3534 1.8 20 1.5 20H-911.5C-911.867 20 -912.133 19.32 -912.22 18.96C-914.46 9.39996 -919.93 5.52004 -928.47 2.54004C-928.823 2.42004 -929 2.17004 -929 1.79004V-2129.94C-929 -2130.27 -928.843 -2130.47 -928.53 -2130.56ZM16.8 -2129.64C9.15999 -2131.43 3.26999 -2137.78 1.17999 -2145.33C1.09922 -2145.63 1 -2146 1 -2146C1 -2146 0.30967 -2147.02 0 -2147C-2 -2147 -3.75333 -2147 -5.5 -2147C-307.06 -2146.89 -608.407 -2146.9 -910 -2147C-910.167 -2147 -910.5 -2146.5 -910.5 -2146.5C-910.5 -2146.5 -910.924 -2145.68 -910.97 -2145.52C-913.403 -2137.13 -918.81 -2131.76 -927.19 -2129.4C-927.28 -2129.37 -927.944 -2129.07 -928 -2129V0.5C-928 0.88 -927.317 1.39333 -926.95 1.5C-918.817 3.89333 -913.513 9.12662 -911.04 17.2C-910.86 17.7933 -910.627 19 -910 19C-608.793 18.88 -307.907 18.9133 -7.5 19C-5.66 19 -2.12 19.24 0.5 19C0.833333 18.9667 0.966664 17.9899 1.06 17.6699C3.45333 9.37659 8.7767 3.97998 17.03 1.47998C17.51 1.33331 18 1.00667 18 0.5V-2128.5C18 -2128.78 17.6562 -2128.99 17.4837 -2129.21C17.3112 -2129.42 17.0703 -2129.58 16.8 -2129.64Z" fill="#FEFEFE"/>
</g>
<defs>
<clipPath id="clip0_204_5">
<rect width="24" height="24" fill="white"/>
</clipPath>
</defs>
</svg>
