<svg width="24" height="24" viewBox="0 0 24 24" fill="none" xmlns="http://www.w3.org/2000/svg">
<g clip-path="url(#clip0_204_5)">
<path d="M956 18V2158.5C955.5 2160 954.257 2159.85 952.851 2160.13C944.673 2161.71 940.3 2166.6 940 2175C939.986 2175.38 939.5 2175.5 939.5 2175.5C939.5 2175.5 939 2176 938.5 2176H19C18.7312 2176 17.5 2176 17.5 2176C17 2176 17 2175.5 17 2175.5C16.1536 2165.38 10.8438 2160.42 0.699818 2159.56C0.233273 2159.52 5.08435e-07 2159.26 5.08435e-07 2158.8V17.9941C-0.000191295 17.8516 0.053891 17.7146 0.150859 17.612C0.247827 17.5094 0.380115 17.4492 0.519865 17.444C9.68414 16.9772 15.1494 12.3262 16.9156 3.4908C17.1355 2.44056 18.5001 0 19 0C325.713 0 631.787 0 938.5 0C938.873 0 939.353 0.653254 939.5 1C940.18 2.57036 940.154 4.43102 940.474 5.58128C942.334 12.1228 946.442 15.7397 953 17C954.203 17.2312 956 17.5 956 18ZM938.055 7.35169C937.595 6.13141 937.735 4.341 937.135 3.26075C937 2.5 936.907 2 936.5 2H21C20.5934 2 19.8681 3.00069 19.7948 3.40078C18.0553 12.8763 12.4701 18.4476 3.03921 20.1146C2.6793 20.1746 2 20.1332 2 20.5V2156C2 2156.34 2.66597 2156.8 2.99922 2156.86C11.0271 2158.23 19.195 2164.54 19.5649 2173.34C19.5915 2173.95 19.8935 2174 20.5 2174H936.5H937C937.079 2173.93 937.079 2173.99 937.095 2173.89C938.668 2164.43 944.27 2158.76 953.901 2156.88C954 2156.5 954 2156 954 2156V20.5C954 20.2199 953.78 20.0467 953.5 20C945.702 18.7064 940.774 14.52 938.055 7.35169Z" fill="#FEFEFE"/>
<path d="M4.47 21.44C13.18 18.99 18.69 13.89 20.81 5.02001C20.89 4.67334 21.64 4 22 4H934.18C934.473 4 935.203 4.64001 935.27 4.92001C937.403 13.68 942.847 19.1467 951.6 21.32C951.98 21.42 952 21.6467 952 22V2154C952 2154.35 952.01 2154.62 951.67 2154.71C942.897 2156.84 937.443 2162.29 935.31 2171.06C935.237 2171.35 934.8 2172 934.5 2172H21.5C21.1333 2172 20.8667 2171.32 20.78 2170.96C18.54 2161.4 13.07 2157.52 4.53 2154.54C4.17667 2154.42 4 2154.17 4 2153.79V22.06C4 21.7333 4.15667 21.5267 4.47 21.44ZM949.8 22.36C942.16 20.57 936.27 14.22 934.18 6.67001C934.099 6.37004 934 6 934 6C934 6 933.31 4.9753 933 5C931 5 929.247 5 927.5 5C625.94 5.11333 324.593 5.1 23 5C22.8326 4.99952 22.5 5.5 22.5 5.5C22.5 5.5 22.0757 6.32112 22.03 6.48001C19.5967 14.8667 14.19 20.24 5.81 22.6C5.7203 22.626 5.05594 22.9278 5 23V2152.5C5 2152.88 5.68333 2153.39 6.05 2153.5C14.1833 2155.89 19.4867 2161.13 21.96 2169.2C22.14 2169.79 22.3733 2171 23 2171C324.207 2170.88 625.093 2170.91 925.5 2171C927.34 2171 930.88 2171.24 933.5 2171C933.833 2170.97 933.967 2169.99 934.06 2169.67C936.453 2161.38 941.777 2155.98 950.03 2153.48C950.51 2153.33 951 2153.01 951 2152.5V23.5C951 23.2247 950.656 23.0072 950.484 22.7912C950.311 22.5751 950.07 22.4232 949.8 22.36Z" fill="#FEFEFE"/>
</g>
<defs>
<clipPath id="clip0_204_5">
<rect width="24" height="24" fill="white"/>
</clipPath>
</defs>
</svg>
