<svg width="24" height="24" viewBox="0 0 24 24" fill="none" xmlns="http://www.w3.org/2000/svg">
<g clip-path="url(#clip0_204_5)">
<path d="M23 18V2158.5C22.5 2160 21.2573 2159.85 19.851 2160.13C11.6731 2161.71 7.29992 2166.6 7 2175C6.98642 2175.38 6.5 2175.5 6.5 2175.5C6.5 2175.5 6 2176 5.5 2176H-914C-914.269 2176 -915.5 2176 -915.5 2176C-916 2176 -916 2175.5 -916 2175.5C-916.846 2165.38 -922.156 2160.42 -932.3 2159.56C-932.767 2159.52 -933 2159.26 -933 2158.8V17.9941C-933 17.8516 -932.946 17.7146 -932.849 17.612C-932.752 17.5094 -932.62 17.4492 -932.48 17.444C-923.316 16.9772 -917.851 12.3262 -916.084 3.4908C-915.864 2.44056 -914.5 0 -914 0C-607.287 0 -301.213 0 5.5 0C5.87324 0 6.35337 0.653254 6.5 1C7.17982 2.57036 7.15433 4.43102 7.47424 5.58128C9.33376 12.1228 13.4417 15.7397 20 17C21.2031 17.2312 23 17.5 23 18ZM5.05493 7.35169C4.59505 6.13141 4.73504 4.341 4.13519 3.26075C4 2.5 3.90656 2 3.5 2H-912C-912.407 2 -913.132 3.00069 -913.205 3.40078C-914.945 12.8763 -920.53 18.4476 -929.961 20.1146C-930.321 20.1746 -931 20.1332 -931 20.5V2156C-931 2156.34 -930.334 2156.8 -930.001 2156.86C-921.973 2158.23 -913.805 2164.54 -913.435 2173.34C-913.408 2173.95 -913.107 2174 -912.5 2174H3.5H4C4.07867 2173.93 4.0787 2173.99 4.09521 2173.89C5.66814 2164.43 11.27 2158.76 20.9008 2156.88C21 2156.5 21 2156 21 2156V20.5C21 20.2199 20.7799 20.0467 20.5 20C12.702 18.7064 7.77422 14.52 5.05493 7.35169Z" fill="#FEFEFE"/>
<path d="M-928.53 21.44C-919.82 18.99 -914.31 13.89 -912.19 5.02001C-912.11 4.67334 -911.36 4 -911 4H1.17999C1.47333 4 2.20335 4.64001 2.27002 4.92001C4.40335 13.68 9.84664 19.1467 18.6 21.32C18.98 21.42 19 21.6467 19 22V2154C19 2154.35 19.01 2154.62 18.67 2154.71C9.89665 2156.84 4.44333 2162.29 2.31 2171.06C2.23666 2171.35 1.8 2172 1.5 2172H-911.5C-911.867 2172 -912.133 2171.32 -912.22 2170.96C-914.46 2161.4 -919.93 2157.52 -928.47 2154.54C-928.823 2154.42 -929 2154.17 -929 2153.79V22.06C-929 21.7333 -928.843 21.5267 -928.53 21.44ZM16.8 22.36C9.15999 20.57 3.26999 14.22 1.17999 6.67001C1.09922 6.37004 1 6 1 6C1 6 0.30967 4.9753 0 5C-2 5 -3.75333 5 -5.5 5C-307.06 5.11333 -608.407 5.1 -910 5C-910.167 4.99952 -910.5 5.5 -910.5 5.5C-910.5 5.5 -910.924 6.32112 -910.97 6.48001C-913.403 14.8667 -918.81 20.24 -927.19 22.6C-927.28 22.626 -927.944 22.9278 -928 23V2152.5C-928 2152.88 -927.317 2153.39 -926.95 2153.5C-918.817 2155.89 -913.513 2161.13 -911.04 2169.2C-910.86 2169.79 -910.627 2171 -910 2171C-608.793 2170.88 -307.907 2170.91 -7.5 2171C-5.66 2171 -2.12 2171.24 0.5 2171C0.833333 2170.97 0.966664 2169.99 1.06 2169.67C3.45333 2161.38 8.7767 2155.98 17.03 2153.48C17.51 2153.33 18 2153.01 18 2152.5V23.5C18 23.2247 17.6562 23.0072 17.4837 22.7912C17.3112 22.5751 17.0703 22.4232 16.8 22.36Z" fill="#FEFEFE"/>
</g>
<defs>
<clipPath id="clip0_204_5">
<rect width="24" height="24" fill="white"/>
</clipPath>
</defs>
</svg>
